<svg width="136" height="104" viewBox="0 0 136 104" fill="none" xmlns="http://www.w3.org/2000/svg">
<g clip-path="url(#clip0_333_601)">
<path d="M17.359 16.5562C21.633 16.5562 25.0978 12.85 25.0978 8.27811C25.0978 3.70623 21.633 0 17.359 0C13.085 0 9.62024 3.70623 9.62024 8.27811C9.62024 12.85 13.085 16.5562 17.359 16.5562Z" fill="#EAC435"/>
<path d="M108.255 84.7157C105.557 84.7154 102.947 83.6917 100.888 81.8267C98.8295 79.9616 97.4559 77.376 97.0115 74.5296L97.0023 74.4693L97.0386 74.4227C97.6436 73.6468 98.152 72.7901 98.551 71.8742C98.1099 72.3889 97.6103 72.8423 97.0638 73.2239L96.8814 73.3537L96.8708 73.1198C96.8617 72.9178 96.8571 72.7172 96.8571 72.5235C96.8561 71.385 97.003 70.2519 97.2935 69.1567C98.6168 64.1815 98.843 58.8388 97.9661 53.2773C97.8162 52.3237 97.7409 51.3584 97.741 50.3914C97.7423 46.3048 99.1035 42.3523 101.581 39.2414C104.058 36.1306 107.49 34.0646 111.261 33.4134C115.033 32.7622 118.898 33.5684 122.164 35.6875C125.431 37.8067 127.885 41.1004 129.088 44.979L129.125 45.0972L129.017 45.1439C128.207 45.5109 127.347 45.7389 126.471 45.8197C127.397 46.0477 128.348 46.1454 129.298 46.1102L129.398 46.1065L129.423 46.2108C129.741 47.5782 129.902 48.9821 129.902 50.3914L129.901 50.5439C129.898 51.6231 130.108 52.6909 130.517 53.6776C130.925 54.6643 131.524 55.5478 132.273 56.2705C133.491 57.4555 134.454 58.9087 135.096 60.5299C135.739 62.1511 136.045 63.902 135.995 65.6621C135.944 67.4221 135.538 69.1496 134.803 70.7256C134.069 72.3016 133.025 73.6887 131.741 74.7916L131.682 74.843L131.612 74.809C130.144 74.0967 129.075 73.3206 128.293 72.3943C128.814 73.583 129.516 74.6711 130.37 75.6144L130.481 75.7362L130.344 75.8216C128.601 76.9086 126.619 77.4809 124.602 77.4801L124.545 77.4799C124.524 77.4798 124.504 77.4798 124.484 77.4798C121.398 77.4798 118.473 78.7563 116.45 80.9878C115.385 82.1615 114.111 83.0959 112.704 83.736C111.297 84.3762 109.784 84.7092 108.255 84.7157V84.7157Z" fill="#A9B8A5"/>
<path d="M104.221 103.926C104.172 103.926 104.124 103.907 104.087 103.872C104.049 103.838 104.025 103.79 104.018 103.737C104.009 103.671 103.153 97.0672 103.922 88.2899C104.632 80.1839 106.912 68.5083 113.743 58.9194C113.759 58.8964 113.779 58.8771 113.803 58.8626C113.826 58.848 113.852 58.8386 113.879 58.8347C113.906 58.8308 113.933 58.8326 113.959 58.84C113.985 58.8474 114.009 58.8602 114.031 58.8777C114.052 58.8952 114.07 58.9171 114.084 58.9421C114.098 58.9671 114.107 58.9947 114.11 59.0233C114.114 59.0519 114.112 59.0811 114.105 59.109C114.098 59.1369 114.086 59.1632 114.07 59.1861C107.298 68.6923 105.037 80.2822 104.332 88.331C103.567 97.0572 104.417 103.61 104.425 103.675C104.429 103.706 104.427 103.738 104.419 103.768C104.411 103.799 104.396 103.827 104.377 103.85C104.358 103.874 104.334 103.893 104.307 103.906C104.28 103.919 104.251 103.926 104.221 103.926V103.926Z" fill="#3F3D56"/>
<path d="M107.636 71.5986C107.592 71.5987 107.55 71.584 107.515 71.5567C107.48 71.5294 107.454 71.4909 107.44 71.4467C107.427 71.4025 107.427 71.3549 107.44 71.3106C107.454 71.2664 107.48 71.2279 107.515 71.2006C109.461 69.7914 111.564 68.6465 113.774 67.7922C117.227 66.4398 122.479 65.2138 127.885 67.0543C127.91 67.063 127.934 67.0771 127.955 67.0958C127.976 67.1144 127.993 67.1372 128.005 67.1629C128.018 67.1885 128.025 67.2166 128.027 67.2454C128.03 67.2742 128.027 67.3032 128.018 67.3307C128.01 67.3582 127.997 67.3838 127.98 67.4059C127.962 67.4279 127.941 67.4461 127.917 67.4594C127.893 67.4727 127.867 67.4808 127.84 67.4832C127.813 67.4856 127.786 67.4824 127.76 67.4736C122.465 65.6709 117.309 66.8767 113.915 68.2055C111.741 69.0451 109.672 70.1708 107.757 71.5566C107.722 71.5839 107.679 71.5987 107.636 71.5986V71.5986Z" fill="#3F3D56"/>
<path d="M24.0597 87.5842C22.1406 87.5805 19.1193 87.7461 17.4736 88.6755C16.2089 89.3901 15.0572 90.3129 14.0606 91.4102C13.6765 91.8349 13.3127 92.28 12.9706 92.7439C12.0242 89.2804 11.914 85.6168 12.6504 82.0954C12.7022 81.8584 12.6852 81.6101 12.6016 81.3837C12.5181 81.1572 12.372 80.9634 12.1828 80.8281C11.9937 80.6928 11.7704 80.6224 11.5429 80.6263C11.3153 80.6301 11.0943 80.7081 10.9093 80.8499C8.23572 82.9354 6.52644 86.4699 6.11075 90.0455C5.5811 94.6013 6.82825 99.1922 8.56161 103.393L8.56107 103.396C8.55786 103.414 8.553 103.435 8.54822 103.456C8.54181 103.486 8.53381 103.517 8.52739 103.548C8.51611 103.601 8.50335 103.656 8.49207 103.71L8.77274 103.696C8.7888 103.704 8.80485 103.711 8.82083 103.72H15.8505C15.9436 103.611 16.0304 103.497 16.1103 103.377C16.8882 102.236 17.2105 100.69 17.6035 99.2952C17.8881 98.2853 18.2441 97.3 18.6685 96.3478C19.7369 93.956 21.2112 91.7972 23.0164 89.9811C23.0742 89.9228 23.1335 89.8645 23.1929 89.8079C23.4952 89.5105 23.9639 89.1126 24.4219 88.7392C24.5219 88.6578 24.5956 88.5449 24.6326 88.4164C24.6696 88.2879 24.668 88.1502 24.628 88.0227C24.5881 87.8953 24.5117 87.7844 24.4098 87.7057C24.3078 87.6271 24.1854 87.5846 24.0597 87.5842V87.5842Z" fill="#F2F2F2"/>
<path d="M71.5225 16.6835C71.6879 17.1781 71.6649 17.7224 71.4586 18.199C71.2522 18.6757 70.879 19.0464 70.4194 19.2314C70.3178 19.2721 70.2129 19.303 70.1062 19.3238L69.0438 26.282L66.5518 23.8207L67.9426 17.5904C67.8912 17.0654 68.0349 16.5398 68.3428 16.1273C68.6507 15.7148 69.098 15.4484 69.588 15.3858C70.0002 15.3353 70.4163 15.4362 70.7678 15.672C71.1194 15.9078 71.3855 16.2645 71.5225 16.6835L71.5225 16.6835Z" fill="#9E616A"/>
<path d="M53.1312 32.45C53.1312 32.45 55.0654 29.7164 62.0839 29.7913L66.0677 28.243L66.9781 19.3156L70.1647 20.1272L69.7094 31.1647L62.8811 35.3849L53.9284 37.3327L53.1312 32.45Z" fill="#F24C00"/>
<path d="M42.3464 99.7504L44.1851 100.588L48.0822 93.4014L45.3687 92.1644L42.3464 99.7504Z" fill="#9E616A"/>
<path d="M57.54 101.611L59.5384 101.611L60.4892 93.3654L57.5396 93.3655L57.54 101.611Z" fill="#9E616A"/>
<path d="M57.4696 103.842L63.6153 103.841V103.758C63.6153 103.08 63.3632 102.429 62.9146 101.949C62.466 101.469 61.8576 101.199 61.2232 101.199H61.2231L60.1005 100.288L58.006 101.2L57.4695 101.2L57.4696 103.842Z" fill="#2F2E41"/>
<path d="M41.2286 101.178L46.8824 103.755L46.9129 103.679C47.1616 103.054 47.1682 102.35 46.9314 101.72C46.6946 101.091 46.2338 100.588 45.6502 100.322L45.65 100.322L44.9512 99.0127L42.6904 98.9724L42.1969 98.7474L41.2286 101.178Z" fill="#2F2E41"/>
<path d="M59.5004 52.809L62.5377 72.5927L61.7111 75.5409L62.7958 77.6288L61.2029 95.9657L61.8495 97.4884L60.0429 98.6802H56.3669L56.1718 82.0797L55.2637 79.6424V78.2991L53.4152 68.1765L53.0748 79.7555L52.5371 82.1967L52.9888 83.9348L52.3986 85.1524L47.341 96.7695H43.2189L43.5377 94.1423C42.7991 93.7423 44.6465 92.5733 44.824 91.7084L44.2171 90.2476L44.824 87.4882L45.3805 82.0964L44.7936 70.715L45.0698 55.3886L49.8919 51.4443L59.5004 52.809Z" fill="#2F2E41"/>
<path d="M52.1037 26.7551C54.4043 26.7551 56.2693 24.76 56.2693 22.2991C56.2693 19.8381 54.4043 17.8431 52.1037 17.8431C49.803 17.8431 47.938 19.8381 47.938 22.2991C47.938 24.76 49.803 26.7551 52.1037 26.7551Z" fill="#9E616A"/>
<path d="M44.8653 61.0153C44.9821 60.7914 45.0515 60.5429 45.0688 60.2872C45.086 60.0315 45.0506 59.7749 44.9651 59.5354C44.8796 59.296 44.7461 59.0794 44.5739 58.9011C44.4017 58.7228 44.195 58.5871 43.9685 58.5035L43.9587 52.2721L41.4343 54.0593L41.8307 59.7027C41.7246 60.1192 41.7649 60.5627 41.9441 60.9494C42.1233 61.3361 42.4289 61.6391 42.803 61.8009C43.1771 61.9627 43.5936 61.9721 43.9737 61.8273C44.3538 61.6825 44.671 61.3936 44.8653 61.0153Z" fill="#9E616A"/>
<path d="M44.632 33.4435L43.5042 32.2808L42.6758 32.9204C42.6758 32.9204 41.8607 33.9667 41.2086 37.1055C40.5566 40.2443 41.2086 57.5077 41.2086 57.5077L44.795 56.9846L44.306 47.9169L45.7731 40.2443L44.632 33.4435Z" fill="#F24C00"/>
<path d="M42.9668 32.5644L46.7663 30.623L49.3459 28.0636L54.0498 28.0259L55.5672 30.136L59.5732 31.5917L58.9055 46.3676L59.3607 47.5038C59.3607 47.5038 59.0436 47.8103 58.8987 47.9817C58.7538 48.1531 59.0989 49.5881 59.0989 49.5881L59.2935 51.1492L58.7538 51.5617L59.4554 52.4483L59.6296 53.8458C59.6296 53.8458 47.3819 50.5895 45.0677 55.9839C44.9454 56.2689 45.2465 53.4834 45.2465 53.4834L45.5476 51.4443L45.2489 49.614L44.7937 49.127L45.5571 48.3103L45.0677 44.4352L42.9668 32.5644Z" fill="#F24C00"/>
<path d="M82.625 99.6627H80.3703L79.2974 90.3599H82.625V99.6627Z" fill="#FFB6B6"/>
<path d="M83.8151 103.842H82.1982L81.9096 102.209L81.1704 103.842H76.8819C76.6764 103.842 76.4762 103.771 76.3106 103.641C76.145 103.511 76.0227 103.327 75.9615 103.117C75.9003 102.907 75.9035 102.682 75.9705 102.474C76.0376 102.266 76.165 102.087 76.3341 101.962L79.7588 99.4318V97.7809L83.3609 98.0109L83.8151 103.842Z" fill="#2F2E41"/>
<path d="M104.553 94.8775L102.614 96.1077L97.2545 88.6916L100.117 86.876L104.553 94.8775Z" fill="#FFB6B6"/>
<path d="M107.569 97.8225L106.178 98.7047L105.152 97.4576L105.294 99.2655L101.606 101.606C101.429 101.718 101.223 101.766 101.019 101.745C100.814 101.723 100.622 101.632 100.469 101.485C100.316 101.338 100.211 101.142 100.17 100.927C100.128 100.711 100.152 100.487 100.238 100.288L101.977 96.2428L101.19 94.8228L104.398 93.0552L107.569 97.8225Z" fill="#2F2E41"/>
<path d="M81.6188 40.1813L80.5232 47.653L90.9321 47.7994L89.5625 40.6208L81.6188 40.1813Z" fill="#FFB6B6"/>
<path d="M80.483 47.5585L77.51 55.2712L77.2935 75.8968L79.8305 95.5901H82.6381L83.7885 76.2179L86.6178 62.9627L89.4083 76.8263L98.0849 90.3959H102.348L94.5099 75.4426L93.6027 59.1536C93.6027 59.1536 94.1682 52.2434 91.2744 48.1657L90.5701 45.989L80.483 47.5585Z" fill="#2F2E41"/>
<path d="M95.0455 53.1896C94.7557 53.1051 94.4867 52.9537 94.2575 52.746C94.0283 52.5383 93.8445 52.2793 93.719 51.9874C93.5935 51.6955 93.5293 51.3776 93.5311 51.0563C93.5328 50.735 93.6004 50.418 93.729 50.1276L89.3009 34.6848L92.558 33.9941L96.6079 49.1314C97.0496 49.3949 97.3855 49.8226 97.5521 50.3334C97.7187 50.8442 97.7044 51.4026 97.5118 51.9028C97.3192 52.403 96.9618 52.8103 96.5072 53.0475C96.0527 53.2847 95.5326 53.3352 95.0455 53.1896V53.1896Z" fill="#FFB6B6"/>
<path d="M89.7924 45.6062L82.0103 41.7247C81.8052 41.7201 81.6072 41.6436 81.4467 41.5071C81.2861 41.3706 81.1717 41.1815 81.1212 40.9689C80.7365 39.3398 79.8903 37.529 80.3391 33.3004C80.4277 32.4812 80.669 31.6894 81.0487 30.9717C81.4284 30.254 81.9388 29.6251 82.5497 29.1222C83.1607 28.6192 83.8597 28.2524 84.6054 28.0435C85.3512 27.8347 86.1285 27.7879 86.8915 27.906C87.6963 28.0292 88.4677 28.3331 89.155 28.7977C89.8423 29.2623 90.4301 29.8771 90.8796 30.6017C91.3292 31.3264 91.6305 32.1445 91.7637 33.0025C91.8968 33.8604 91.8589 34.7388 91.6524 35.58C90.7493 39.2489 90.8461 43.1723 90.7431 44.6802C90.7279 44.8982 90.6463 45.1049 90.5109 45.2687C90.3755 45.4325 90.1938 45.5444 89.9933 45.5873C89.9337 45.5999 89.8731 45.6063 89.8123 45.6064C89.8057 45.6064 89.7991 45.6063 89.7924 45.6062Z" fill="#F24C00"/>
<path d="M73.0368 19.67C72.9936 19.7734 72.9428 19.8729 72.8849 19.9677L76.6061 29.301L78.8933 29.6012L78.921 33.3528L74.8236 33.2424C74.4926 33.2335 74.1733 33.1099 73.9135 32.8903C73.6537 32.6707 73.4675 32.3669 73.3829 32.0245L70.6248 20.8641C70.2341 20.7394 69.8881 20.4905 69.6329 20.1504C69.3777 19.8102 69.2253 19.3951 69.1961 18.96C69.1668 18.525 69.2621 18.0908 69.4692 17.7151C69.6763 17.3394 69.9854 17.0401 70.3554 16.8569C70.7254 16.6738 71.1388 16.6154 71.5406 16.6897C71.9423 16.764 72.3134 16.9673 72.6045 17.2727C72.8956 17.5781 73.0929 17.971 73.1701 18.3993C73.2473 18.8275 73.2008 19.2708 73.0368 19.67V19.67Z" fill="#FFB6B6"/>
<path d="M76.9809 28.9684C77.0735 28.8806 77.1826 28.8153 77.301 28.7768C77.4193 28.7383 77.544 28.7276 77.6666 28.7453L81.9474 29.3653C82.5802 29.3565 83.1905 29.6164 83.6443 30.0882C84.0982 30.56 84.3586 31.205 84.3686 31.8819C84.3785 32.5587 84.1371 33.2122 83.6973 33.699C83.2575 34.1857 82.6552 34.4661 82.0224 34.4785L77.7438 35.2163C77.6217 35.2374 77.4967 35.23 77.3775 35.1948C77.2583 35.1595 77.1476 35.0972 77.0529 35.0121C76.9583 34.9269 76.8819 34.8209 76.8289 34.7014C76.776 34.5818 76.7478 34.4514 76.7462 34.3191L76.6907 29.6695C76.6891 29.5372 76.7142 29.406 76.7643 29.285C76.8143 29.164 76.8882 29.056 76.9809 28.9684V28.9684Z" fill="#F24C00"/>
<path d="M89.1025 38.5965C88.9931 38.5349 88.8973 38.4488 88.8218 38.344C88.7463 38.2393 88.6928 38.1183 88.665 37.9894L87.6927 33.487C87.4613 32.857 87.4728 32.1546 87.7248 31.5337C87.9768 30.9128 88.4486 30.4241 89.0369 30.1747C89.6252 29.9254 90.2819 29.9357 90.863 30.2035C91.4442 30.4713 91.9024 30.9746 92.1372 31.6031L94.2959 35.623C94.3575 35.7378 94.3953 35.8653 94.4066 35.9971C94.418 36.1288 94.4026 36.2617 94.3617 36.3865C94.3207 36.5113 94.2551 36.6253 94.1692 36.7205C94.0834 36.8158 93.9794 36.8901 93.8643 36.9385L89.8182 38.6388C89.7031 38.6872 89.5796 38.7085 89.4561 38.7013C89.3326 38.694 89.212 38.6582 89.1025 38.5965V38.5965Z" fill="#F24C00"/>
<path d="M88.93 26.3182C91.0627 25.071 91.8466 22.2106 90.6807 19.9292C89.5148 17.6477 86.8407 16.8093 84.7079 18.0564C82.5752 19.3036 81.7913 22.164 82.9572 24.4455C84.1231 26.7269 86.7972 27.5653 88.93 26.3182Z" fill="#FFB6B6"/>
<path d="M83.7914 20.2948C82.8471 20.2891 81.9029 20.2834 80.9586 20.2777C80.8915 19.5893 81.1779 18.9044 81.5952 18.3755C82.0125 17.8466 82.553 17.4484 83.0865 17.0568C83.6281 16.6592 84.1892 16.2525 84.8331 16.1136C85.3728 15.9971 85.9306 16.0779 86.4758 16.159C87.199 16.2666 87.922 16.3741 88.6451 16.4817C89.4388 16.5997 90.2692 16.7333 90.9139 17.2425C91.7857 17.931 91.5628 19.5205 92.3993 20.2574C94.9257 22.4831 93.9028 24.4269 93.9499 26.4556C90.897 26.7982 87.844 27.1407 84.791 27.4833C84.4597 27.5443 84.1203 27.5338 83.7928 27.4523C83.4722 27.3474 83.1782 27.0635 83.1546 26.7058C83.1282 26.3062 83.4245 25.9791 83.6652 25.6723C84.2392 24.9114 84.5838 23.9821 84.6533 23.0072C84.7228 22.0323 84.514 21.0578 84.0544 20.2126L83.7914 20.2948Z" fill="#2F2E41"/>
<path d="M51.038 26.5369C51.0202 26.495 51.0024 26.4529 50.9847 26.4107C50.9916 26.4109 50.9983 26.412 51.0051 26.4122L51.038 26.5369Z" fill="#2F2E41"/>
<path d="M47.8221 18.0458C48.0199 17.8461 48.277 17.7273 48.5484 17.7099C48.8178 17.7191 49.091 17.9794 49.0352 18.2614C49.5299 17.3243 50.3175 16.6036 51.2595 16.2257C52.2016 15.8479 53.238 15.837 54.1868 16.1951C54.8563 16.4477 55.5128 16.9532 55.6666 17.6946C55.6816 17.8893 55.7359 18.0781 55.8257 18.2482C55.9035 18.3391 56.0045 18.4036 56.1162 18.4339C56.2279 18.4642 56.3455 18.4588 56.4544 18.4185L56.461 18.4164C56.4983 18.4028 56.5385 18.4015 56.5765 18.4126C56.6145 18.4237 56.6485 18.4468 56.6741 18.4788C56.6997 18.5108 56.7158 18.5503 56.7202 18.5922C56.7246 18.634 56.7171 18.6764 56.6988 18.7136L56.5094 19.0916C56.7482 19.1485 56.9963 19.1429 57.2326 19.0751C57.2719 19.0641 57.3133 19.0663 57.3513 19.0816C57.3894 19.0968 57.422 19.1242 57.4449 19.16C57.4678 19.1959 57.4797 19.2384 57.4791 19.2818C57.4785 19.3252 57.4653 19.3674 57.4414 19.4025C57.1266 19.8632 56.7156 20.2389 56.2411 20.4998C55.7666 20.7607 55.2418 20.8995 54.7083 20.9052C53.9514 20.9003 53.1868 20.6213 52.4501 20.8074C52.1652 20.8795 51.8989 21.0188 51.6708 21.2153C51.4428 21.4118 51.2587 21.6604 51.1322 21.9428C51.0057 22.2253 50.9399 22.5345 50.9397 22.8477C50.9394 23.1609 51.0047 23.4703 51.1308 23.7529C50.9045 23.4882 50.4671 23.5509 50.2356 23.8105C50.129 23.9494 50.0502 24.1103 50.0041 24.2832C49.958 24.456 49.9455 24.6372 49.9675 24.8154C50.0293 25.3613 50.1808 25.8911 50.415 26.3805C49.52 26.3511 48.655 26.0285 47.9368 25.4563C47.2186 24.8842 46.6819 24.09 46.3992 23.1812C46.1164 22.2723 46.1013 21.2925 46.3558 20.3741C46.6102 19.4557 47.1221 18.643 47.8221 18.0458V18.0458Z" fill="#2F2E41"/>
<path d="M130.587 104H0.197853C0.150025 104 0.104205 103.979 0.0704352 103.943C0.0366651 103.907 0.0177002 103.858 0.0177002 103.807C0.0177002 103.756 0.0366651 103.707 0.0704352 103.67C0.104205 103.634 0.150025 103.614 0.197853 103.613H130.587C130.611 103.613 130.635 103.618 130.657 103.628C130.679 103.638 130.699 103.652 130.716 103.67C130.732 103.688 130.746 103.709 130.755 103.733C130.764 103.756 130.769 103.781 130.769 103.807C130.769 103.832 130.764 103.857 130.755 103.881C130.746 103.904 130.732 103.926 130.716 103.944C130.699 103.962 130.679 103.976 130.657 103.985C130.635 103.995 130.611 104 130.587 104V104Z" fill="#CCCCCC"/>
<path d="M31.3245 1.92678C27.574 1.38449 23.2921 3.55297 22.32 7.46557C22.075 6.76991 21.6297 6.17556 21.0482 5.7684C20.4668 5.36123 19.7794 5.16233 19.0854 5.20043C18.3913 5.23852 17.7266 5.51165 17.1872 5.98034C16.6478 6.44902 16.2616 7.08901 16.0845 7.80784L16.5139 8.13681C24.5512 9.99601 32.871 9.95578 40.8923 8.0189C38.2834 5.08602 35.075 2.46906 31.3245 1.92678Z" fill="#ABA3A3"/>
<path d="M15.24 12.9643C11.4895 12.422 7.20762 14.5904 6.23554 18.503C5.99057 17.8074 5.54519 17.213 4.96376 16.8059C4.38232 16.3987 3.69493 16.1998 3.0009 16.2379C2.30687 16.276 1.64212 16.5491 1.1027 17.0178C0.563285 17.4865 0.177121 18.1265 0 18.8453L0.429382 19.1743C8.46669 21.0335 16.7866 20.9933 24.8078 19.0564C22.199 16.1235 18.9906 13.5065 15.24 12.9643Z" fill="#ABA3A3"/>
</g>
<defs>
<clipPath id="clip0_333_601">
<rect width="136" height="104" fill="white"/>
</clipPath>
</defs>
</svg>
