<svg width="34" height="34" viewBox="0 0 34 34" fill="none" xmlns="http://www.w3.org/2000/svg">
<g clip-path="url(#clip0_48_1216)">
<path d="M33.6862 15.4166L17.686 1.10883C17.6581 1.08086 17.6301 1.05988 17.5951 1.0389C17.2455 0.703237 16.686 0.689251 16.3154 1.01792L0.315249 15.3257C-0.0763628 15.6754 -0.104335 16.2698 0.238325 16.6614C0.427138 16.8712 0.685882 16.9761 0.944625 16.9761C1.1684 16.9761 1.39218 16.8992 1.574 16.7383L4.45514 14.1579V14.6614V22.13V30.8433C4.45514 32.151 5.51809 33.221 6.83279 33.221C6.85377 33.221 6.86775 33.221 6.88873 33.221C6.90971 33.221 6.9237 33.221 6.94468 33.221H11.8818C13.1126 33.221 14.1126 32.221 14.1126 30.9902V22.5076C14.1126 22.3188 14.2664 22.1649 14.4552 22.1649H19.5532C19.742 22.1649 19.8958 22.3188 19.8958 22.5076V30.9902C19.8958 32.221 20.8958 33.221 22.1266 33.221H27.1756C28.5043 33.221 29.5533 31.9133 29.5533 30.2419V22.4656V20.088V14.2488L32.4344 16.8292C32.6162 16.9901 32.84 17.067 33.0638 17.067C33.3225 17.067 33.5813 16.9621 33.7701 16.7523C34.1057 16.3607 34.0708 15.7663 33.6862 15.4166ZM27.6581 20.081V22.4586V30.2279C27.6581 30.9063 27.3225 31.3189 27.1686 31.3189H22.1196C21.9308 31.3189 21.777 31.165 21.777 30.9762V22.5076C21.777 21.2768 20.777 20.2768 19.5462 20.2768H14.4482C13.2175 20.2768 12.2174 21.2768 12.2174 22.5076V30.9902C12.2174 31.179 12.0636 31.3328 11.8748 31.3328H6.93768C6.9167 31.3328 6.90272 31.3328 6.88174 31.3328C6.86076 31.3328 6.84677 31.3328 6.82579 31.3328C6.56006 31.3328 6.33628 31.1161 6.33628 30.8433V22.123V14.6544V12.4656L16.9518 2.98297L27.6581 12.5565V20.081Z" fill="#F24C00"/>
</g>
<defs>
<clipPath id="clip0_48_1216">
<rect width="34" height="34" fill="white"/>
</clipPath>
</defs>
</svg>
