<svg width="38" height="38" viewBox="0 0 38 38" fill="none" xmlns="http://www.w3.org/2000/svg">
<path d="M15.0664 2.57538C9.4332 2.8871 5.78164 5.37343 3.87422 10.2051C2.98359 12.4539 2.56797 14.3316 1.74414 19.7793C1.5957 20.759 1.38047 22.0504 1.26172 22.6441C1.13555 23.2379 1.03906 23.7648 1.03906 23.8094C1.03906 23.9801 4.02266 23.75 5.78906 23.4457C7.84492 23.0969 9.38125 22.6516 13.1738 21.3008C18.7773 19.3043 20.3359 18.859 23.0078 18.4879C25.3902 18.1539 28.9453 17.9164 33.866 17.768C34.7492 17.7383 35.4766 17.7012 35.4766 17.6863C35.4766 17.6715 35.291 17.3375 35.0609 16.9367C34.5711 16.098 34.341 15.6082 33.2352 13.0996C31.8992 10.0418 31.0012 8.46835 29.8434 7.16952C27.6316 4.66835 24.9301 3.48827 19.8906 2.82031C18.0797 2.58281 16.4023 2.50116 15.0664 2.57538Z" fill="#485696"/>
<path d="M33.4355 18.4582C22.8297 18.8738 21.3973 19.1039 14.7473 21.4566C9.8043 23.2156 8.49805 23.6164 6.49414 24.0024C5.07656 24.2695 3.93359 24.4106 2.24883 24.507L0.757031 24.5961L0.667968 24.893C0.623437 25.0637 0.452734 25.4719 0.296874 25.7984L0.014843 26.407L0.846093 26.4664C2.01133 26.5406 4.3418 26.5258 5.30664 26.4293C7.23633 26.2289 9.0918 25.8281 11.0586 25.1676C11.6523 24.9672 12.1867 24.7816 12.2535 24.7594C12.402 24.6926 13.2629 25.6649 15.2965 28.166C17.6492 31.068 18.8219 32.3297 20.1875 33.4207C20.9742 34.0516 22.0578 34.7492 22.8148 35.1129C23.3715 35.3801 23.5273 35.4246 23.9652 35.432C24.3883 35.432 24.5516 35.3949 24.9598 35.1945C25.7465 34.8086 26.1844 34.1777 26.5109 32.968C26.7336 32.1441 26.7781 29.7988 26.6074 27.832C26.4441 25.8652 25.984 22.4363 25.7094 21.1078L25.6648 20.8777L26.6223 20.7887C29.1977 20.5512 32.7824 20.3508 35.7215 20.284C36.9313 20.2617 37.9258 20.2172 37.9258 20.1949C37.9258 20.1727 37.7551 20.0391 37.5547 19.9055C37.3543 19.7645 36.9238 19.3711 36.5898 19.0297L35.9961 18.4063L34.9719 18.4211C34.4152 18.4285 33.725 18.4434 33.4355 18.4582ZM23.698 22.0059C24.2324 25.3828 24.5738 28.6188 24.5813 30.5039C24.5813 32.2481 24.4328 32.8789 24.0023 32.8789C23.2898 32.8789 20.7293 30.8082 18.4211 28.3516C16.8773 26.7113 14.4801 23.9356 14.5543 23.8688C14.6137 23.8168 16.9441 22.9262 18.0574 22.5328C19.9797 21.85 21.323 21.5012 23.1563 21.2043C23.5496 21.1375 23.557 21.1524 23.698 22.0059Z" fill="#485696"/>
</svg>

