<svg width="34" height="35" viewBox="0 0 34 35" fill="none" xmlns="http://www.w3.org/2000/svg">
<path d="M16.3312 0.682808C16.1941 0.819918 16.1484 2.23671 16.1484 6.13671C16.1484 11.0727 16.1332 11.4078 15.8742 11.5754C15.7066 11.6668 15.0211 12.4894 14.3508 13.4035C13.6652 14.3023 13.0406 15.125 12.9645 15.2164C12.8883 15.3078 12.1875 16.2371 11.4105 17.2883C9.62812 19.6648 5.69766 24.8598 2.46797 29.1254C0.274219 32.0047 0 32.4465 0 32.9644C0 33.3605 0.121875 33.6805 0.365625 33.9699L0.73125 34.3965L16.773 34.4422C31.2152 34.4727 32.8301 34.4574 33.1652 34.2289C33.6527 33.9242 33.9879 33.1016 33.8508 32.5988C33.7289 32.157 17.7328 11.6363 17.4129 11.5144C17.2605 11.4535 17.2148 10.966 17.2148 9.39687V7.35546H21.0691C24.9387 7.35546 25.2891 7.30976 25.2891 6.80703C25.2891 6.71562 24.7406 6.03007 24.0855 5.28359L22.8668 3.92773L24.0855 2.70898C25.9746 0.835152 26.066 0.896089 21.1758 0.835152C18.7992 0.819918 17.093 0.743746 17.0016 0.652339C16.8035 0.454293 16.5598 0.454293 16.3312 0.682808ZM23.1258 2.19101C23.0191 2.37382 22.6383 2.80039 22.2879 3.13554C21.9223 3.4707 21.6328 3.83632 21.6328 3.9582C21.6328 4.09531 22.0137 4.59804 22.4707 5.10078C22.9277 5.58828 23.3086 6.06054 23.3086 6.15195C23.3086 6.22812 22.0746 6.28906 20.2617 6.28906H17.2148V4.15625V2.02343L19.9266 1.97773C21.4043 1.9625 22.7754 1.91679 22.9734 1.90156C23.2781 1.87109 23.2934 1.90156 23.1258 2.19101ZM19.3629 15.5363C20.7187 17.2883 21.9223 18.8117 22.0289 18.9336C22.1812 19.1316 22.0137 19.3906 20.9473 20.5332L19.6676 21.9043L18.2508 20.4875C17.2148 19.4668 16.7273 19.0859 16.4531 19.0859C16.1637 19.0859 15.6914 19.4668 14.7012 20.457L13.3301 21.8281L12.2332 20.7312C11.6238 20.1219 11.1211 19.5734 11.1211 19.4973C11.1211 19.3754 15.6152 13.373 16.1941 12.718C16.3617 12.5352 16.5902 12.3828 16.6969 12.3828C16.8035 12.3828 18.007 13.7996 19.3629 15.5363ZM27.8027 26.3527C30.4687 29.7805 32.7234 32.6598 32.7996 32.7512C32.891 32.8883 32.8758 33.0254 32.7539 33.1777C32.5863 33.3758 30.682 33.4062 16.8492 33.3758L1.14258 33.3301L1.15781 32.9492C1.15781 32.6902 2.65078 30.6031 5.68242 26.5965C8.16562 23.3211 10.268 20.5941 10.3289 20.5484C10.4051 20.5027 11.0754 21.0816 11.8219 21.8434C12.5531 22.5898 13.2387 23.1992 13.3301 23.1992C13.4062 23.1992 14.1527 22.5289 14.9602 21.7215L16.4531 20.2285L17.9461 21.7215C18.7535 22.5289 19.5152 23.1992 19.6066 23.1992C19.698 23.1992 20.4445 22.5137 21.2672 21.6758C22.0898 20.8379 22.7906 20.1523 22.8516 20.1523C22.9125 20.1523 25.1367 22.9402 27.8027 26.3527Z" fill="#F24C00"/>
</svg>

