<svg width="32" height="32" viewBox="0 0 32 32" fill="none" xmlns="http://www.w3.org/2000/svg">
<path d="M15.5 1.87499C17.5275 1.87499 19.4586 2.28756 21.214 3.03332L19.3365 4.92861C18.1302 4.52888 16.8404 4.31249 15.5 4.31249C8.76903 4.31249 3.3125 9.76902 3.3125 16.5C3.3125 18.8154 3.95806 21.0326 5.15822 22.9519C5.64866 23.7362 6.22723 24.4629 6.88163 25.1174C7.53504 25.7708 8.26047 26.3487 9.04336 26.8388C10.9637 28.0408 13.1826 28.6875 15.5 28.6875C22.231 28.6875 27.6875 23.231 27.6875 16.5C27.6875 15.1993 27.4837 13.9462 27.1064 12.7709L28.9987 10.8621C29.7242 12.5971 30.125 14.5018 30.125 16.5C30.125 24.5772 23.5772 31.125 15.5 31.125C12.7219 31.125 10.0554 30.3479 7.75006 28.9049C6.81103 28.3171 5.94126 27.6242 5.15796 26.8408C4.37346 26.0562 3.67977 25.1849 3.09151 24.2442C1.65078 21.9402 0.875 19.2758 0.875 16.5C0.875 8.42283 7.42283 1.87499 15.5 1.87499ZM30.3893 1.18112L30.6146 1.38953C32.1378 2.91272 32.1433 5.38059 30.627 6.91057L19.6502 17.986C19.4645 18.1733 19.236 18.3127 18.9845 18.392L11.919 20.6186C11.7478 20.6726 11.5653 20.5776 11.5113 20.4064C11.4913 20.3428 11.4913 20.2746 11.5113 20.211L13.7404 13.1382C13.8182 12.8913 13.9538 12.6666 14.136 12.4827L25.1182 1.40182C26.5573 -0.0502001 28.8599 -0.12621 30.3893 1.18112Z" fill="#F24C00"/>
</svg>
