<svg width="25" height="25" viewBox="0 0 25 25" fill="none" xmlns="http://www.w3.org/2000/svg">
<path d="M12.12 23.53L10.9075 21.4275C10.485 20.695 10.735 19.76 11.4675 19.3375L11.735 19.1825C11.7175 19.015 11.71 18.845 11.71 18.6775C11.71 18.51 11.7175 18.3425 11.735 18.1725L11.4675 18.02C11.1175 17.8175 10.86 17.48 10.755 17.09C10.65 16.6975 10.705 16.28 10.9075 15.9275L12.12 13.825C12.3225 13.475 12.66 13.2175 13.05 13.1125C13.18 13.0775 13.3125 13.06 13.445 13.06C13.7125 13.06 13.9775 13.13 14.21 13.265L14.48 13.42C14.755 13.2325 15.0475 13.0675 15.35 12.925V12.605C15.35 12.58 15.365 12.5575 15.365 12.5325C14.5575 11.9175 13.5425 11.44 12.23 11.1875V10.43C14.035 9.5675 15.2925 7.74 15.2925 5.6075C15.295 2.65 12.895 0.25 9.93501 0.25C6.97501 0.25 4.57501 2.65 4.57501 5.61C4.57501 7.745 5.83251 9.5725 7.63751 10.4325V11.19C1.53501 12.36 1.51251 18.27 1.51251 21.6875C1.51251 24.355 13.18 24.28 13.05 24.245C12.66 24.14 12.325 23.8825 12.12 23.53Z" fill="#F24C00"/>
<path d="M22.48 18.6775C22.48 18.2275 22.4 17.8025 22.285 17.3875L23.4875 16.695L22.2725 14.5925L21.085 15.2775C20.4775 14.66 19.7025 14.2175 18.8375 13.9925V12.6075H16.41V13.9925C15.545 14.215 14.77 14.6575 14.16 15.2775L12.9725 14.5925L11.7575 16.695L12.96 17.3875C12.8475 17.8025 12.765 18.2275 12.765 18.6775C12.765 19.1275 12.845 19.5525 12.96 19.9675L11.7575 20.6625L12.9725 22.765L14.16 22.08C14.7675 22.6975 15.5425 23.14 16.41 23.365V24.75L18.8375 24.7475V23.365C19.7025 23.1425 20.48 22.6975 21.0875 22.08L22.275 22.765L23.4875 20.6625L22.2875 19.97C22.3975 19.555 22.48 19.13 22.48 18.6775ZM17.6225 21.0025C16.3375 21.0025 15.2975 19.9625 15.2975 18.6775C15.2975 17.395 16.3375 16.3525 17.6225 16.3525C18.9075 16.3525 19.9475 17.395 19.9475 18.6775C19.9475 19.9625 18.9075 21.0025 17.6225 21.0025Z" fill="#F24C00"/>
</svg>
