<svg width="38" height="38" viewBox="0 0 38 38" fill="none" xmlns="http://www.w3.org/2000/svg">
<path d="M37.0409 34.4094C36.9832 34.4094 36.9295 34.4135 36.8717 34.4217L26.7313 35.7342C26.2113 35.8003 25.8481 35.2307 26.1287 34.7849C26.2814 34.5497 26.43 34.3103 26.5785 34.0709C26.9706 33.4354 26.4465 32.5893 25.7201 32.5893C25.6705 32.5893 25.6211 32.5935 25.5674 32.6017L12.2779 34.5992L10.6889 34.8386L6.35542 35.4907C5.86429 35.565 5.53411 35.9818 5.57538 36.4812C5.59189 36.7041 5.68269 36.9146 5.82714 37.0714C5.99635 37.2571 6.2316 37.3603 6.48749 37.3603C6.53701 37.3603 6.58654 37.3562 6.64019 37.3479L22.4803 34.9666C23.021 34.884 23.3924 35.4948 23.0746 35.9406C22.9714 36.0809 22.8682 36.2254 22.765 36.3657C22.4803 36.7536 22.5463 37.4016 22.8765 37.7359C23.0457 37.9092 23.2603 38 23.4873 38C23.512 38 23.5409 38 23.5657 37.9959H23.5698H23.5739L37.2472 36.2542H37.2514H37.2555C37.4908 36.2171 37.6972 36.0809 37.8333 35.8704C37.982 35.6393 38.0356 35.3545 37.9695 35.0986C37.8622 34.6818 37.499 34.4094 37.0409 34.4094Z" fill="#7B8C7D"/>
<path d="M31.1969 7.90472C32.2988 6.59641 32.1296 4.64426 30.8213 3.54231L27.4741 0.727583C26.1658 -0.374369 24.2137 -0.205156 23.1117 1.10316L21.7869 2.6756L29.872 9.47717L31.1969 7.90472Z" fill="#7B8C7D"/>
<path d="M28.8444 10.6741L20.7593 3.8725L18.0188 7.13296L26.1039 13.9345L28.8444 10.6741Z" fill="#7B8C7D"/>
<path d="M0.00375332 36.213C-0.0168825 36.4936 0.243129 36.7124 0.515522 36.6422L2.55847 36.1263L0.156458 34.104L0.00375332 36.213Z" fill="#7B8C7D"/>
<path d="M9.76859 33.3157L24.9442 15.2882L16.8591 8.48666L1.68347 26.51C1.40282 26.8443 1.23361 27.2571 1.20472 27.6904L0.845657 32.676L3.85023 35.206L8.6914 33.9885C9.11241 33.8812 9.48798 33.6459 9.76859 33.3157Z" fill="#7B8C7D"/>
</svg>
